{"title":"The Adventurer The Curse Of The Midas Box 2013 720p BluRay DTS x","uid":9543231,"size":3653746232,"categoryP":"video","categoryS":"hd___movies","magnet":"?xt=urn:btih:74dab7d7b622b71dab7752be86fac5c6efbaec0d&amp;dn=The+Adventurer+The+Curse+Of+The+Midas+Box+2013+720p+BluRay+DTS+x&amp;tr=udp%3A%2F%2Ftracker.openbittorrent.com%3A80&amp;tr=udp%3A%2F%2Fopen.demonii.com%3A1337&amp;tr=udp%3A%2F%2Ftracker.coppersurfer.tk%3A6969&amp;tr=udp%3A%2F%2Fexodus.desync.com%3A6969","seeders":1,"leechers":0,"uploader":"sakhslitsa","files":11,"time":1391043236,"description":"The Adventurer The Curse Of The Midas Box 2013 720p BluRay DTS x264-PsiX\n\n &lt;a href=&quot;\nhttp://www.imdb.com/title/tt1376213/&quot; rel=&quot;nofollow&quot; target=&quot;_NEW&quot;&gt;\nhttp://www.imdb.com/title/tt1376213/&lt;/a&gt;\n\n\n\n\nFormat : Matroska\nFormat version : Version 2\nFile size : 3.35 GiB\nDuration : 1h 39mn\nOverall bit rate : 4 842 Kbps\nEncoded date : UTC 2014-01-29 01:59:05\nWriting application : mkvmerge v6.5.0 ('Isn't she lovely') built on Oct 20 2013 12:50:05\nWriting library : libebml v1.3.0 + libmatroska v1.4.1\n\nVideo\nID : 1\nFormat : AVC\nFormat/Info : Advanced Video Codec\nFormat profile : &lt;a class=&quot;__cf_email__&quot; href=&quot;/cdn-cgi/l/email-protection&quot; data-cfemail=&quot;773f1e101f373b435946&quot;&gt;[email&amp;#160;protected]&lt;/a&gt;&lt;script cf-hash='f9e31' type=&quot;text/javascript&quot;&gt;\n/* &lt;![CDATA[ */!function(){try{var t=&quot;currentScript&quot;in document?document.currentScript:function(){for(var t=document.getElementsByTagName(&quot;script&quot;),e=t.length;e--;)if(t[e].getAttribute(&quot;cf-hash&quot;))return t[e]}();if(t&amp;&amp;t.previousSibling){var e,r,n,i,c=t.previousSibling,a=c.getAttribute(&quot;data-cfemail&quot;);if(a){for(e=&quot;&quot;,r=parseInt(a.substr(0,2),16),n=2;a.length-n;n+=2)i=parseInt(a.substr(n,2),16)^r,e+=String.fromCharCode(i);e=document.createTextNode(e),c.parentNode.replaceChild(e,c)}}}catch(u){}}();/* ]]&gt; */&lt;/script&gt;\nFormat settings, CABAC : Yes\nFormat settings, ReFrames : 6 frames\nCodec ID : V_MPEG4/ISO/AVC\nDuration : 1h 39mn\nBit rate : 4 084 Kbps\nWidth : 1 280 pixels\nHeight : 544 pixels\nDisplay aspect ratio : 2.35:1\nFrame rate mode : Constant\nFrame rate : 23.976 fps\nColor space : YUV\nChroma subsampling : 4:2:0\nBit depth : 8 bits\nScan type : Progressive\nBits/(Pixel*Frame) : 0.245\nStream size : 2.76 GiB (82%)\nWriting library : x264 core 138 r2358 9e941d1\n\nAudio\nID : 2\nFormat : DTS\nFormat/Info : Digital Theater Systems\nMode : 16\nFormat settings, Endianness : Big\nCodec ID : A_DTS\nDuration : 1h 39mn\nBit rate mode : Constant\nBit rate : 756 Kbps\nChannel(s) : 6 channels\nChannel positions : Front: L C R, Side: L R, LFE\nSampling rate : 48.0 KHz\nBit depth : 16 bits\nCompression mode : Lossy\nStream size : 536 MiB (16%)\nLanguage : English\nDefault : Yes\nForced : No\n\nMenu\n00:00:00.000 : en:00:00:00.000\n00:08:30.760 : en:00:08:30.760\n00:20:06.455 : en:00:20:06.455\n00:27:59.887 : en:00:27:59.887\n00:38:42.111 : en:00:38:42.111\n00:44:18.030 : en:00:44:18.030\n00:50:11.383 : en:00:50:11.383\n00:58:18.704 : en:00:58:18.704\n01:08:02.996 : en:01:08:02.996\n01:15:33.195 : en:01:15:33.195\n01:22:20.394 : en:01:22:20.394\n01:32:54.319 : en:01:32:54.319\n\n\n\nEncoded....................PsiX\nSource.....................Blu-ray Disc -BB (Thanks)\nSample.....................Yes\nSubs (VobSub)..............English(SDH), Spanish.\nSubs (srt).................English, Brazilian, Romanian, Greek.\n\n\n\nGreetz To: tomcat-12 | Blacksheep | FWOLF | CFR .....\n.....and all P2P Encoders and Groups.....\n","torrent":{"xt":"urn:btih:74dab7d7b622b71dab7752be86fac5c6efbaec0d","amp;dn":"The+Adventurer+The+Curse+Of+The+Midas+Box+2013+720p+BluRay+DTS+x","amp;tr":["udp%3A%2F%2Ftracker.openbittorrent.com%3A80","udp%3A%2F%2Fopen.demonii.com%3A1337","udp%3A%2F%2Ftracker.coppersurfer.tk%3A6969","udp%3A%2F%2Fexodus.desync.com%3A6969"],"infoHash":"74dab7d7b622b71dab7752be86fac5c6efbaec0d","infoHashBuffer":{"type":"Buffer","data":[116,218,183,215,182,34,183,29,171,119,82,190,134,250,197,198,239,186,236,13]},"announce":[],"urlList":[]}}